<svg id="Layer_1" data-name="Layer 1" xmlns="http://www.w3.org/2000/svg" viewBox="0 0 24 24"><defs><style>.cls-1{fill:#fff;}</style></defs><path class="cls-1" d="M20.93,11.6,12.39,3.06a1.9,1.9,0,0,0-1.34-.55H4.41a1.9,1.9,0,0,0-1.9,1.9v6.64a1.91,1.91,0,0,0,.56,1.35l8.54,8.54a1.9,1.9,0,0,0,1.34.55,1.87,1.87,0,0,0,1.34-.56l6.64-6.64A1.87,1.87,0,0,0,21.49,13,1.93,1.93,0,0,0,20.93,11.6Zm-8,8h0L4.67,11.31a.83.83,0,0,1-.26-.61V5.28a.87.87,0,0,1,.87-.87h5.41a.9.9,0,0,1,.62.25l8.28,8.28Z"/><circle class="cls-1" cx="7.58" cy="7.3" r="1.29"/></svg>