<svg id="Layer_1" data-name="Layer 1" xmlns="http://www.w3.org/2000/svg" xmlns:xlink="http://www.w3.org/1999/xlink" viewBox="0 0 24 24"><defs><style>.cls-1,.cls-2,.cls-3{fill:#fff;}.cls-1{clip-rule:evenodd;}.cls-3{fill-rule:evenodd;}.cls-4{clip-path:url(#clip-path);}.cls-5{isolation:isolate;}.cls-6{clip-path:url(#clip-path-2);}.cls-7{clip-path:url(#clip-path-3);}</style><clipPath id="clip-path"><path class="cls-1" d="M20.18,16.54H3.82V5.64H20.18Zm0-12.72H3.82A1.81,1.81,0,0,0,2,5.64v10.9a1.82,1.82,0,0,0,1.82,1.82H8.37v1.82h7.26V18.36h4.55A1.82,1.82,0,0,0,22,16.54V5.64A1.82,1.82,0,0,0,20.18,3.82Z"/></clipPath><clipPath id="clip-path-2"><rect class="cls-2" x="-2.54" y="-0.72" width="29.08" height="25.44"/></clipPath><clipPath id="clip-path-3"><rect class="cls-2" x="2" y="3.82" width="19.99" height="16.36"/></clipPath></defs><rect class="cls-2" x="5.77" y="7.41" width="3.07" height="3.07"/><rect class="cls-2" x="10.37" y="7.41" width="3.07" height="3.07"/><rect class="cls-2" x="14.97" y="7.41" width="3.07" height="3.07"/><rect class="cls-2" x="5.77" y="12" width="3.07" height="3.07"/><rect class="cls-2" x="10.37" y="12" width="3.07" height="3.07"/><rect class="cls-2" x="14.97" y="12" width="3.07" height="3.07"/><path class="cls-3" d="M20.18,16.54H3.82V5.64H20.18Zm0-12.72H3.82A1.81,1.81,0,0,0,2,5.64v10.9a1.82,1.82,0,0,0,1.82,1.82H8.37v1.82h7.26V18.36h4.55A1.82,1.82,0,0,0,22,16.54V5.64A1.82,1.82,0,0,0,20.18,3.82Z"/><g class="cls-4"><g class="cls-5"><rect class="cls-2" x="-2.54" y="-0.72" width="29.08" height="25.44"/><g class="cls-6"><rect class="cls-2" x="2" y="3.82" width="19.99" height="16.36"/><g class="cls-7"><rect class="cls-2" x="-2.54" y="-0.72" width="29.08" height="25.44"/></g></g></g></g></svg>