<svg id="Layer_1" data-name="Layer 1" xmlns="http://www.w3.org/2000/svg" viewBox="0 0 24 24"><defs><style>.cls-1{fill:#fff;}</style></defs><path class="cls-1" d="M15.68,4.64a1.84,1.84,0,1,1,1.84,1.84A1.84,1.84,0,0,1,15.68,4.64ZM19.36,21.2V15.68h2.3l-2.34-7A1.86,1.86,0,0,0,17.57,7.4h-.11a1.83,1.83,0,0,0-1.74,1.26L14.92,11a3.22,3.22,0,0,1,1.68,2.81V21.2Zm-6.9-9.66a1.38,1.38,0,1,0-1.38-1.38A1.38,1.38,0,0,0,12.46,11.54ZM6,6.48A1.84,1.84,0,1,0,4.18,4.64,1.84,1.84,0,0,0,6,6.48ZM7.86,21.2V14.76H9.24V9.24A1.85,1.85,0,0,0,7.4,7.4H4.64A1.85,1.85,0,0,0,2.8,9.24v5.52H4.18V21.2Zm6,0V17.52h.92V13.84a1.4,1.4,0,0,0-1.38-1.38H11.54a1.4,1.4,0,0,0-1.38,1.38v3.68h.92V21.2Z"/></svg>