<svg id="Layer_1" data-name="Layer 1" xmlns="http://www.w3.org/2000/svg" viewBox="0 0 24 24"><defs><style>.cls-1{fill:#fff;}</style></defs><path class="cls-1" d="M20.31,3.69C20,3.36,18.37,3,16.26,3c-3,0-7.09.75-9.8,3.46C1.87,11.05,2.9,19.52,3.69,20.31c.32.33,1.94.69,4.05.69,3,0,7.09-.75,9.8-3.46C22.13,13,21.1,4.48,20.31,3.69ZM7.74,19a12.52,12.52,0,0,1-2.53-.23A13.85,13.85,0,0,1,5,14.94l4,4C8.53,19,8.08,19,7.74,19Zm8.39-2.87a9.8,9.8,0,0,1-4.66,2.44l-6-6A9.81,9.81,0,0,1,7.88,7.88a9.81,9.81,0,0,1,4.64-2.43l6.05,6.05A10,10,0,0,1,16.13,16.13Zm2.83-7-4-4c.52,0,1-.06,1.33-.06a12.52,12.52,0,0,1,2.53.23A14,14,0,0,1,19,9.09Z"/><rect class="cls-1" x="8.04" y="11.01" width="7.92" height="1.98" transform="translate(-4.97 12) rotate(-45)"/></svg>