<svg id="Layer_1" data-name="Layer 1" xmlns="http://www.w3.org/2000/svg" viewBox="0 0 24 24"><defs><style>.cls-1{fill:#fff;}</style></defs><path class="cls-1" d="M14.5,9.5h-5a.83.83,0,0,0-.83.83v10a.84.84,0,0,0,.83.84h5a.84.84,0,0,0,.83-.84v-10A.83.83,0,0,0,14.5,9.5Zm-.83,10H10.33V11.17h3.34Z"/><circle class="cls-1" cx="12" cy="12.83" r="0.83"/><path class="cls-1" d="M7.88,7,9.05,8.22a4.18,4.18,0,0,1,5.9,0L16.13,7A5.83,5.83,0,0,0,7.88,7ZM12,2A9.17,9.17,0,0,0,5.52,4.68L6.7,5.86a7.5,7.5,0,0,1,10.6,0l1.18-1.18A9.1,9.1,0,0,0,12,2Z"/></svg>