<svg id="Layer_1" data-name="Layer 1" xmlns="http://www.w3.org/2000/svg" viewBox="0 0 24 24"><defs><style>.cls-1{fill:#fff;}</style></defs><path class="cls-1" d="M12,2A10,10,0,1,0,22,12,10,10,0,0,0,12,2Zm0,18a8,8,0,1,1,8-8A8,8,0,0,1,12,20Zm.31-8.86C10.54,10.69,10,10.2,10,9.47S10.76,8,12.07,8,14,8.7,14,9.68h1.71a3.1,3.1,0,0,0-2.49-3V5H10.9V6.69A3,3,0,0,0,8.18,9.5c0,1.79,1.49,2.69,3.66,3.21,1.95.46,2.34,1.15,2.34,1.87,0,.53-.39,1.39-2.1,1.39s-2.23-.72-2.32-1.64H8a3.24,3.24,0,0,0,2.86,3V19h2.34V17.33C14.76,17,16,16.17,16,14.56,16,12.36,14.07,11.6,12.31,11.14Z"/></svg>